<svg width="620" height="620" viewBox="0 0 620 620" fill="none" xmlns="http://www.w3.org/2000/svg">
<path fill-rule="evenodd" clip-rule="evenodd" d="M573.995 273.512V411.185C573.995 473.574 523.353 524.216 460.99 524.216H150.456C120.483 524.209 91.7396 512.297 70.5479 491.1C49.3562 469.904 37.4512 441.158 37.4512 411.185V273.512C37.4581 243.543 49.3661 214.804 70.5571 193.613C91.7481 172.422 120.487 160.514 150.456 160.507H460.99C490.959 160.514 519.698 172.422 540.889 193.613C562.08 214.804 573.988 243.543 573.995 273.512ZM515.26 342.348C515.246 312.347 503.323 283.579 482.109 262.365C460.895 241.151 432.126 229.227 402.125 229.213H209.32C179.319 229.227 150.551 241.151 129.337 262.365C108.123 283.579 96.1992 312.347 96.1854 342.348C96.1992 372.349 108.123 401.118 129.337 422.332C150.551 443.546 179.319 455.47 209.32 455.483H402.125C432.126 455.47 460.895 443.546 482.109 422.332C503.323 401.118 515.246 372.349 515.26 342.348Z" fill="#30B230"/>
<path d="M37.4594 412.541C58.1476 412.541 74.9187 381.114 74.9187 342.347C74.9187 303.58 58.1476 272.153 37.4594 272.153C16.7711 272.153 0 303.58 0 342.347C0 381.114 16.7711 412.541 37.4594 412.541Z" fill="#30B230"/>
<path d="M573.991 412.541C594.679 412.541 611.45 381.114 611.45 342.347C611.45 303.58 594.679 272.153 573.991 272.153C553.302 272.153 536.531 303.58 536.531 342.347C536.531 381.114 553.302 412.541 573.991 412.541Z" fill="#30B230"/>
<path d="M320.257 98.5894L293.213 199.534" stroke="#30B230" stroke-width="41.5055" stroke-miterlimit="1.5" stroke-linecap="round" stroke-linejoin="round"/>
<path fill-rule="evenodd" clip-rule="evenodd" d="M335.602 38.4687C346.574 41.4236 355.927 48.6096 361.608 58.4506C367.29 68.2916 368.836 79.9843 365.908 90.964C363.717 99.1612 359.144 106.524 352.767 112.122C346.391 117.719 338.497 121.299 330.085 122.409C321.673 123.519 313.121 122.109 305.51 118.358C297.9 114.606 291.573 108.681 287.331 101.333C283.088 93.9845 281.121 85.543 281.677 77.0763C282.234 68.6096 285.289 60.4982 290.457 53.7684C295.624 47.0385 302.672 41.9927 310.708 39.2693C318.744 36.5459 327.407 36.2672 335.602 38.4687Z" fill="#30B230"/>
<path d="M225.139 389.278C251.173 389.278 272.278 368.173 272.278 342.139C272.278 316.105 251.173 295 225.139 295C199.105 295 178 316.105 178 342.139C178 368.173 199.105 389.278 225.139 389.278Z" fill="black"/>
<path d="M385.849 389.278C411.883 389.278 432.988 368.173 432.988 342.139C432.988 316.105 411.883 295 385.849 295C359.815 295 338.71 316.105 338.71 342.139C338.71 368.173 359.815 389.278 385.849 389.278Z" fill="black"/>
<circle cx="498" cy="486" r="97" fill="black"/>
<path d="M444.396 448.545H490.597C489.149 443.867 487.6 439.22 485.951 434.609L502.863 431.174C505.629 438.517 507.73 444.308 509.165 448.545H551.28V463.485H534.865C529.301 480.229 521.287 494.374 510.822 505.918C522.176 513.772 536.177 519.765 552.826 523.897C546.71 531.351 542.658 536.773 540.67 540.163C523.832 534.52 509.536 527.069 497.783 517.809C485.951 526.737 471.434 534.409 454.233 540.826C450.849 535.275 447.157 529.918 443.174 524.781C459.723 519.617 473.577 513.237 484.736 505.641C474.124 493.803 466.609 479.75 462.192 463.485H444.396V448.545ZM516.075 463.485H479.27C482.87 475.25 489.194 485.998 497.728 494.855C506.295 486.043 512.592 475.276 516.075 463.485Z" fill="#30B230"/>
</svg>
