<svg xmlns="http://www.w3.org/2000/svg" xmlns:xlink="http://www.w3.org/1999/xlink" width="512" zoomAndPan="magnify" viewBox="0 0 384 383.999986" height="512" preserveAspectRatio="xMidYMid meet" version="1.2"><defs><clipPath id="4c6671d8b9"><path d="M 12.550781 50.203125 L 212.566406 50.203125 L 212.566406 252 L 12.550781 252 Z M 12.550781 50.203125 "/></clipPath><clipPath id="03fbc4235e"><path d="M 27.550781 50.203125 L 197.566406 50.203125 C 205.851562 50.203125 212.566406 56.917969 212.566406 65.203125 L 212.566406 237.035156 C 212.566406 245.320312 205.851562 252.035156 197.566406 252.035156 L 27.550781 252.035156 C 19.265625 252.035156 12.550781 245.320312 12.550781 237.035156 L 12.550781 65.203125 C 12.550781 56.917969 19.265625 50.203125 27.550781 50.203125 Z M 27.550781 50.203125 "/></clipPath><clipPath id="e96f70766c"><path d="M 12.554688 50.203125 L 212.558594 50.203125 L 212.558594 251.953125 L 12.554688 251.953125 Z M 12.554688 50.203125 "/></clipPath><clipPath id="82c618709e"><path d="M 27.546875 50.203125 L 197.496094 50.203125 C 205.777344 50.203125 212.492188 56.914062 212.492188 65.195312 L 212.492188 236.957031 C 212.492188 245.238281 205.777344 251.953125 197.496094 251.953125 L 27.546875 251.953125 C 19.265625 251.953125 12.554688 245.238281 12.554688 236.957031 L 12.554688 65.195312 C 12.554688 56.914062 19.265625 50.203125 27.546875 50.203125 Z M 27.546875 50.203125 "/></clipPath><clipPath id="362d183367"><path d="M 171.433594 147.191406 L 371.449219 147.191406 L 371.449219 349 L 171.433594 349 Z M 171.433594 147.191406 "/></clipPath><clipPath id="0381bd0dba"><path d="M 186.433594 147.191406 L 356.449219 147.191406 C 364.734375 147.191406 371.449219 153.910156 371.449219 162.191406 L 371.449219 334.023438 C 371.449219 342.308594 364.734375 349.023438 356.449219 349.023438 L 186.433594 349.023438 C 178.148438 349.023438 171.433594 342.308594 171.433594 334.023438 L 171.433594 162.191406 C 171.433594 153.910156 178.148438 147.191406 186.433594 147.191406 Z M 186.433594 147.191406 "/></clipPath><clipPath id="55bceac4c6"><path d="M 171.4375 147.191406 L 371.4375 147.191406 L 371.4375 348.941406 L 171.4375 348.941406 Z M 171.4375 147.191406 "/></clipPath><clipPath id="98b4fda48c"><path d="M 186.429688 147.191406 L 356.378906 147.191406 C 364.660156 147.191406 371.375 153.90625 371.375 162.1875 L 371.375 333.949219 C 371.375 342.230469 364.660156 348.941406 356.378906 348.941406 L 186.429688 348.941406 C 178.148438 348.941406 171.4375 342.230469 171.4375 333.949219 L 171.4375 162.1875 C 171.4375 153.90625 178.148438 147.191406 186.429688 147.191406 Z M 186.429688 147.191406 "/></clipPath></defs><g id="61b9fae4ab"><g clip-rule="nonzero" clip-path="url(#4c6671d8b9)"><g clip-rule="nonzero" clip-path="url(#03fbc4235e)"><path style=" stroke:none;fill-rule:nonzero;fill:#9ca2a7;fill-opacity:1;" d="M 12.550781 50.203125 L 212.566406 50.203125 L 212.566406 251.785156 L 12.550781 251.785156 Z M 12.550781 50.203125 "/></g></g><g clip-rule="nonzero" clip-path="url(#e96f70766c)"><g clip-rule="nonzero" clip-path="url(#82c618709e)"><path style="fill:none;stroke-width:6;stroke-linecap:butt;stroke-linejoin:miter;stroke:#000000;stroke-opacity:1;stroke-miterlimit:4;" d="M 19.998382 0.000699143 L 246.676322 0.000699143 C 257.721838 0.000699143 266.678083 8.951735 266.678083 19.99725 L 266.678083 249.092699 C 266.678083 260.138214 257.721838 269.09446 246.676322 269.09446 L 19.998382 269.09446 C 8.952867 269.09446 0.0018317 260.138214 0.0018317 249.092699 L 0.0018317 19.99725 C 0.0018317 8.951735 8.952867 0.000699143 19.998382 0.000699143 Z M 19.998382 0.000699143 " transform="matrix(0.749739,0,0,0.749739,12.553314,50.202601)"/></g></g><g clip-rule="nonzero" clip-path="url(#362d183367)"><g clip-rule="nonzero" clip-path="url(#0381bd0dba)"><path style=" stroke:none;fill-rule:nonzero;fill:#9ca2a7;fill-opacity:1;" d="M 171.433594 147.191406 L 371.449219 147.191406 L 371.449219 348.773438 L 171.433594 348.773438 Z M 171.433594 147.191406 "/></g></g><g clip-rule="nonzero" clip-path="url(#55bceac4c6)"><g clip-rule="nonzero" clip-path="url(#98b4fda48c)"><path style="fill:none;stroke-width:6;stroke-linecap:butt;stroke-linejoin:miter;stroke:#000000;stroke-opacity:1;stroke-miterlimit:4;" d="M 19.998917 -0.00157348 L 246.676857 -0.00157348 C 257.722373 -0.00157348 266.678618 8.954672 266.678618 20.000187 L 266.678618 249.095636 C 266.678618 260.141152 257.722373 269.092187 246.676857 269.092187 L 19.998917 269.092187 C 8.953402 269.092187 0.00236665 260.141152 0.00236665 249.095636 L 0.00236665 20.000187 C 0.00236665 8.954672 8.953402 -0.00157348 19.998917 -0.00157348 Z M 19.998917 -0.00157348 " transform="matrix(0.749739,0,0,0.749739,171.435726,147.192586)"/></g></g><g style="fill:#000000;fill-opacity:1;"><g transform="translate(64.61297, 189.82671)"><path style="stroke:none" d="M 98.09375 -80.75 L 85.171875 -80.75 L 85.171875 -60.5625 C 85.171875 -55.09375 84.695312 -50.78125 83.75 -47.625 C 82.800781 -44.476562 81.117188 -41.691406 78.703125 -39.265625 C 76.285156 -36.953125 73.34375 -35.164062 69.875 -33.90625 C 66.40625 -32.644531 61.9375 -31.753906 56.46875 -31.234375 L 52.828125 -48.578125 C 57.035156 -49.210938 59.769531 -50.160156 61.03125 -51.421875 C 62.1875 -52.472656 62.972656 -53.785156 63.390625 -55.359375 C 63.816406 -56.929688 64.03125 -59.5625 64.03125 -63.25 L 64.03125 -80.75 L 31.859375 -80.75 L 31.859375 -55.046875 C 31.859375 -51.046875 32.015625 -47.757812 32.328125 -45.1875 C 32.648438 -42.613281 33.332031 -40.40625 34.375 -38.5625 C 35.425781 -36.71875 37.003906 -34.976562 39.109375 -33.34375 C 41.210938 -31.71875 44.050781 -29.910156 47.625 -27.921875 L 69.71875 -15.140625 C 76.125 -11.460938 80.429688 -7.804688 82.640625 -4.171875 C 84.847656 -0.546875 85.953125 3.835938 85.953125 8.984375 C 85.953125 13.191406 85.03125 17.289062 83.1875 21.28125 C 81.351562 25.28125 79.4375 28.597656 77.4375 31.234375 L 60.09375 21.296875 C 61.25 20.140625 62.269531 18.5625 63.15625 16.5625 C 64.050781 14.5625 64.5 12.722656 64.5 11.046875 C 64.5 8.941406 64.128906 7.125 63.390625 5.59375 C 62.660156 4.070312 61.21875 2.492188 59.0625 0.859375 C 56.90625 -0.765625 53.671875 -2.835938 49.359375 -5.359375 L 30.28125 -16.40625 C 26.175781 -18.71875 22.675781 -21.132812 19.78125 -23.65625 C 16.894531 -26.175781 14.664062 -29.28125 13.09375 -32.96875 C 12.351562 -34.957031 11.769531 -37.316406 11.34375 -40.046875 C 10.925781 -42.785156 10.71875 -46.363281 10.71875 -50.78125 L 10.71875 -80.75 L 0 -80.75 L 0 -98.09375 L 98.09375 -98.09375 Z M 98.09375 -80.75 "/></g></g><g style="fill:#000000;fill-opacity:1;"><g transform="translate(207.828389, 309.696228)"><path style="stroke:none" d="M 32.078125 0 L 4.046875 0 L 46.75 -123.71875 L 80.46875 -123.71875 L 123.109375 0 L 95.078125 0 L 85.90625 -28.203125 L 41.265625 -28.203125 Z M 47.90625 -48.625 L 79.3125 -48.625 L 64.09375 -95.4375 L 63.125 -95.4375 Z M 47.90625 -48.625 "/></g></g></g></svg>